<svg width="28" height="28" viewBox="0 0 28 28" fill="none" xmlns="http://www.w3.org/2000/svg">
<path fill-rule="evenodd" clip-rule="evenodd" d="M1.67157 1.67157C0.5 2.84315 0.5 4.72876 0.5 8.5V19.5C0.5 23.2712 0.5 25.1569 1.67157 26.3284C2.84315 27.5 4.72876 27.5 8.5 27.5H19.5C23.2712 27.5 25.1569 27.5 26.3284 26.3284C27.5 25.1569 27.5 23.2712 27.5 19.5V8.5C27.5 4.72876 27.5 2.84315 26.3284 1.67157C25.1569 0.5 23.2712 0.5 19.5 0.5H8.5C4.72876 0.5 2.84315 0.5 1.67157 1.67157ZM13 6.5V13H6.5V15L13 15L13 21.5H15L15 15H21.5V13H15V6.5H13Z" fill="white"/>
</svg>
