<svg width="10" height="11" viewBox="0 0 10 11" fill="none" xmlns="http://www.w3.org/2000/svg">
<path fill-rule="evenodd" clip-rule="evenodd" d="M3.3892 1.39954C3.48542 1.30354 3.61611 1.24945 3.75256 1.24945H5.52944C5.6659 1.24945 5.79659 1.30354 5.89281 1.39954C5.989 1.4955 6.04288 1.62548 6.04288 1.76081V2.27218H3.23912V1.76081C3.23912 1.62548 3.293 1.4955 3.3892 1.39954ZM6.79288 1.76081V2.27218H7.75054L7.75303 2.27219H8.63899C8.8461 2.27219 9.01399 2.44008 9.01399 2.64719C9.01399 2.85429 8.8461 3.02219 8.63899 3.02219H8.12554V8.85173C8.12554 9.18654 7.99222 9.50747 7.75518 9.74395C7.51817 9.98041 7.1969 10.1131 6.8621 10.1131H2.4199C2.0851 10.1131 1.76383 9.98041 1.52683 9.74395C1.28979 9.50747 1.15646 9.18654 1.15646 8.85173V3.02219H0.643036C0.435929 3.02219 0.268036 2.85429 0.268036 2.64719C0.268036 2.44008 0.435929 2.27219 0.643036 2.27219H1.52897L1.53146 2.27218H2.48912V1.76081C2.48912 1.426 2.62245 1.10507 2.85949 0.868586C3.09649 0.632131 3.41776 0.499451 3.75256 0.499451H5.52944C5.86424 0.499451 6.18551 0.632131 6.42252 0.868586C6.65956 1.10507 6.79288 1.426 6.79288 1.76081ZM1.90646 3.02219V8.85173C1.90646 8.98706 1.96034 9.11704 2.05654 9.213C2.15276 9.309 2.28345 9.36309 2.4199 9.36309H6.8621C6.99856 9.36309 7.12925 9.309 7.22547 9.213C7.32166 9.11704 7.37554 8.98706 7.37554 8.85173V3.02219H1.90646ZM5.52946 4.48808C5.73656 4.48808 5.90446 4.65598 5.90446 4.86308V7.52217C5.90446 7.72928 5.73656 7.89717 5.52946 7.89717C5.32235 7.89717 5.15446 7.72928 5.15446 7.52217V4.86308C5.15446 4.65598 5.32235 4.48808 5.52946 4.48808ZM4.12758 4.86308C4.12758 4.65598 3.95969 4.48808 3.75258 4.48808C3.54547 4.48808 3.37758 4.65598 3.37758 4.86308V7.52217C3.37758 7.72928 3.54547 7.89717 3.75258 7.89717C3.95969 7.89717 4.12758 7.72928 4.12758 7.52217V4.86308Z" fill="#6A6A6A"/>
</svg>
