<svg width="81" height="22" viewBox="0 0 81 22" fill="none" xmlns="http://www.w3.org/2000/svg">
<path d="M11.7505 7.288C11.7505 8.136 11.5505 8.936 11.1505 9.688C10.7505 10.44 10.1105 11.056 9.2305 11.536C8.3505 12 7.2225 12.232 5.8465 12.232H2.8225V19H0.0864991V2.32H5.8465C7.1265 2.32 8.2065 2.544 9.0865 2.992C9.9825 3.424 10.6465 4.016 11.0785 4.768C11.5265 5.52 11.7505 6.36 11.7505 7.288ZM5.8465 10C6.8865 10 7.6625 9.768 8.1745 9.304C8.6865 8.824 8.9425 8.152 8.9425 7.288C8.9425 5.464 7.9105 4.552 5.8465 4.552H2.8225V10H5.8465ZM15.3439 4.024C14.8479 4.024 14.4319 3.856 14.0959 3.52C13.7599 3.184 13.5919 2.768 13.5919 2.272C13.5919 1.776 13.7599 1.36 14.0959 1.024C14.4319 0.687999 14.8479 0.519999 15.3439 0.519999C15.8239 0.519999 16.2319 0.687999 16.5679 1.024C16.9039 1.36 17.0719 1.776 17.0719 2.272C17.0719 2.768 16.9039 3.184 16.5679 3.52C16.2319 3.856 15.8239 4.024 15.3439 4.024ZM16.6879 5.776V19H13.9519V5.776H16.6879ZM18.9601 12.376C18.9601 11.016 19.2321 9.824 19.7761 8.8C20.3361 7.76 21.1041 6.96 22.0801 6.4C23.0561 5.84 24.1761 5.56 25.4401 5.56C27.0401 5.56 28.3601 5.944 29.4001 6.712C30.4561 7.464 31.1681 8.544 31.5361 9.952H28.5841C28.3441 9.296 27.9601 8.784 27.4321 8.416C26.9041 8.048 26.2401 7.864 25.4401 7.864C24.3201 7.864 23.4241 8.264 22.7521 9.064C22.0961 9.848 21.7681 10.952 21.7681 12.376C21.7681 13.8 22.0961 14.912 22.7521 15.712C23.4241 16.512 24.3201 16.912 25.4401 16.912C27.0241 16.912 28.0721 16.216 28.5841 14.824H31.5361C31.1521 16.168 30.4321 17.24 29.3761 18.04C28.3201 18.824 27.0081 19.216 25.4401 19.216C24.1761 19.216 23.0561 18.936 22.0801 18.376C21.1041 17.8 20.3361 17 19.7761 15.976C19.2321 14.936 18.9601 13.736 18.9601 12.376ZM38.6547 19.216C37.6147 19.216 36.6787 19.032 35.8467 18.664C35.0307 18.28 34.3827 17.768 33.9027 17.128C33.4227 16.472 33.1667 15.744 33.1347 14.944H35.9667C36.0147 15.504 36.2787 15.976 36.7587 16.36C37.2547 16.728 37.8707 16.912 38.6067 16.912C39.3747 16.912 39.9667 16.768 40.3827 16.48C40.8147 16.176 41.0307 15.792 41.0307 15.328C41.0307 14.832 40.7907 14.464 40.3107 14.224C39.8467 13.984 39.1027 13.72 38.0787 13.432C37.0867 13.16 36.2787 12.896 35.6547 12.64C35.0307 12.384 34.4867 11.992 34.0227 11.464C33.5747 10.936 33.3507 10.24 33.3507 9.376C33.3507 8.672 33.5587 8.032 33.9747 7.456C34.3907 6.864 34.9827 6.4 35.7507 6.064C36.5347 5.728 37.4307 5.56 38.4387 5.56C39.9427 5.56 41.1507 5.944 42.0627 6.712C42.9907 7.464 43.4867 8.496 43.5507 9.808H40.8147C40.7667 9.216 40.5267 8.744 40.0947 8.392C39.6627 8.04 39.0787 7.864 38.3427 7.864C37.6227 7.864 37.0707 8 36.6867 8.272C36.3027 8.544 36.1107 8.904 36.1107 9.352C36.1107 9.704 36.2387 10 36.4947 10.24C36.7507 10.48 37.0627 10.672 37.4307 10.816C37.7987 10.944 38.3427 11.112 39.0627 11.32C40.0227 11.576 40.8067 11.84 41.4147 12.112C42.0387 12.368 42.5747 12.752 43.0227 13.264C43.4707 13.776 43.7027 14.456 43.7187 15.304C43.7187 16.056 43.5107 16.728 43.0947 17.32C42.6787 17.912 42.0867 18.376 41.3187 18.712C40.5667 19.048 39.6787 19.216 38.6547 19.216Z" fill="white"/>
<path d="M51.907 21.232C52.003 20.912 52.091 20.512 52.171 20.032C52.251 19.568 52.315 19.104 52.363 18.64C52.411 18.16 52.451 17.72 52.483 17.32C52.515 16.92 52.531 16.632 52.531 16.456C52.531 15.544 52.523 14.632 52.507 13.72C52.507 12.808 52.507 11.896 52.507 10.984L52.195 10.648L49.243 11.968V16.888C49.243 17.896 49.459 18.48 49.891 18.64V19H45.475V18.64C45.667 18.56 45.819 18.4 45.931 18.16C46.059 17.904 46.123 17.552 46.123 17.104V4.48C46.123 4.08 46.115 3.72 46.099 3.4C46.083 3.08 46.043 2.784 45.979 2.512C45.931 2.24 45.859 1.976 45.763 1.72C45.667 1.464 45.547 1.2 45.403 0.927999C45.723 1.04 46.099 1.096 46.531 1.096C47.059 1.096 47.611 1.008 48.187 0.831999C48.779 0.656 49.411 0.408 50.083 0.0879989C49.763 0.471999 49.539 0.983999 49.411 1.624C49.299 2.264 49.243 3 49.243 3.832V10.312C49.931 9.864 50.547 9.416 51.091 8.968C51.635 8.52 52.195 7.992 52.771 7.384C53.043 7.64 53.291 7.872 53.515 8.08C53.739 8.272 53.963 8.448 54.187 8.608C54.427 8.768 54.675 8.928 54.931 9.088C55.187 9.232 55.483 9.384 55.819 9.544C55.755 9.768 55.699 10.008 55.651 10.264C55.619 10.504 55.587 10.816 55.555 11.2C55.539 11.584 55.523 12.056 55.507 12.616C55.491 13.176 55.483 13.872 55.483 14.704C55.483 15.408 55.483 15.992 55.483 16.456C55.499 16.904 55.515 17.272 55.531 17.56C55.547 17.848 55.571 18.088 55.603 18.28C55.635 18.456 55.667 18.624 55.699 18.784C55.379 18.896 55.051 19.048 54.715 19.24C54.395 19.432 54.067 19.648 53.731 19.888C53.411 20.128 53.107 20.376 52.819 20.632C52.531 20.888 52.275 21.136 52.051 21.376L51.907 21.232ZM57.0769 8.368C57.4129 8.336 57.7889 8.288 58.2049 8.224C58.6209 8.144 59.0369 8.056 59.4529 7.96C59.8689 7.864 60.2529 7.768 60.6049 7.672C60.9569 7.56 61.2369 7.456 61.4449 7.36C61.4129 7.632 61.3809 7.88 61.3489 8.104C61.3329 8.328 61.3169 8.568 61.3009 8.824C61.3009 9.08 61.2929 9.36 61.2769 9.664C61.2769 9.968 61.2769 10.328 61.2769 10.744V15.592L62.2849 16.36L64.5889 15.352V11.608C64.5889 11.064 64.5729 10.616 64.5409 10.264C64.5249 9.912 64.4769 9.632 64.3969 9.424C64.3169 9.216 64.2049 9.064 64.0609 8.968C63.9329 8.856 63.7489 8.768 63.5089 8.704V8.392C64.2769 8.344 65.0289 8.232 65.7649 8.056C66.5169 7.88 67.1649 7.656 67.7089 7.384V13.048C67.7089 13.8 67.7249 14.416 67.7569 14.896C67.7889 15.36 67.8449 15.736 67.9249 16.024C68.0049 16.312 68.1089 16.52 68.2369 16.648C68.3809 16.776 68.5649 16.864 68.7889 16.912V17.176C68.5809 17.272 68.3489 17.416 68.0929 17.608C67.8369 17.8 67.5889 18.016 67.3489 18.256C67.1089 18.496 66.8929 18.744 66.7009 19C66.5089 19.24 66.3649 19.464 66.2689 19.672C65.7409 19.224 65.3569 18.808 65.1169 18.424C64.8929 18.04 64.7409 17.568 64.6609 17.008C64.1809 17.248 63.7569 17.472 63.3889 17.68C63.0369 17.888 62.7089 18.096 62.4049 18.304C62.1169 18.512 61.8449 18.728 61.5889 18.952C61.3489 19.176 61.1009 19.416 60.8449 19.672C60.5249 19.384 60.2369 19.144 59.9809 18.952C59.7409 18.744 59.5009 18.56 59.2609 18.4C59.0369 18.24 58.8049 18.096 58.5649 17.968C58.3409 17.824 58.0849 17.672 57.7969 17.512C57.8609 17.416 57.9169 17.2 57.9649 16.864C58.0289 16.528 58.0849 16.12 58.1329 15.64C58.1809 15.16 58.2129 14.648 58.2289 14.104C58.2609 13.544 58.2769 13.008 58.2769 12.496C58.2769 11.92 58.2529 11.424 58.2049 11.008C58.1729 10.576 58.1089 10.208 58.0129 9.904C57.9169 9.6 57.7889 9.352 57.6289 9.16C57.4849 8.952 57.2929 8.776 57.0529 8.632L57.0769 8.368ZM75.8755 17.344C76.0515 17.168 76.2755 16.976 76.5475 16.768C76.8195 16.544 77.0675 16.376 77.2915 16.264C77.2595 15.912 77.2355 15.44 77.2195 14.848C77.2195 14.24 77.2195 13.664 77.2195 13.12C77.2195 12.608 77.2275 12.096 77.2435 11.584C77.2755 11.072 77.3075 10.6 77.3395 10.168C77.0035 10.184 76.6515 10.232 76.2835 10.312C75.9315 10.376 75.5875 10.456 75.2515 10.552C74.9155 10.648 74.6035 10.76 74.3155 10.888C74.0275 11 73.7955 11.112 73.6195 11.224V12.664C73.6195 13.544 73.6035 14.352 73.5715 15.088C73.5555 15.824 73.4995 16.416 73.4035 16.864C73.7075 16.88 74.1075 16.936 74.6035 17.032C75.0995 17.128 75.5235 17.232 75.8755 17.344ZM70.4995 4.48C70.4995 4.08 70.4915 3.72 70.4755 3.4C70.4595 3.08 70.4195 2.784 70.3555 2.512C70.3075 2.24 70.2355 1.976 70.1395 1.72C70.0435 1.464 69.9235 1.2 69.7795 0.927999C70.0995 1.04 70.4755 1.096 70.9075 1.096C71.4355 1.096 71.9875 1.008 72.5635 0.831999C73.1555 0.656 73.7875 0.408 74.4595 0.0879989C74.1395 0.471999 73.9155 0.983999 73.7875 1.624C73.6755 2.264 73.6195 3 73.6195 3.832V9.376C73.9075 9.184 74.2275 8.992 74.5795 8.8C74.9315 8.592 75.3075 8.4 75.7075 8.224C76.1075 8.032 76.5155 7.864 76.9315 7.72C77.3475 7.576 77.7635 7.456 78.1795 7.36C78.5635 7.776 78.9795 8.12 79.4275 8.392C79.8755 8.664 80.3315 8.864 80.7955 8.992C80.6195 9.664 80.5155 10.304 80.4835 10.912C80.4515 11.504 80.4355 12.104 80.4355 12.712C80.4355 13.464 80.4435 14.12 80.4595 14.68C80.4755 15.24 80.4995 15.72 80.5315 16.12C80.5635 16.52 80.6035 16.848 80.6515 17.104C80.6995 17.344 80.7635 17.536 80.8435 17.68C80.4915 17.744 80.1075 17.84 79.6915 17.968C79.2755 18.096 78.8515 18.248 78.4195 18.424C77.9875 18.6 77.5555 18.792 77.1235 19C76.7075 19.224 76.3155 19.464 75.9475 19.72C75.2275 19.496 74.5395 19.304 73.8835 19.144C73.2275 19 72.6435 18.928 72.1315 18.928C71.7795 18.928 71.3795 18.96 70.9315 19.024C70.4995 19.088 70.1155 19.184 69.7795 19.312C70.0675 18.784 70.2595 18.008 70.3555 16.984C70.4515 15.96 70.4995 14.56 70.4995 12.784V4.48Z" fill="#7574FF"/>
</svg>
