<svg width="17" height="20" viewBox="0 0 17 20" fill="none" xmlns="http://www.w3.org/2000/svg">
<path fill-rule="evenodd" clip-rule="evenodd" d="M2.22281 16.0002H13.7772C15.6056 16.0002 16.6492 14.1611 15.5522 12.8724C15.0666 12.3018 14.7673 11.6251 14.6867 10.9155L14.5227 9.46997C14.3512 9.4898 14.1767 9.5 13.9999 9.5C11.5147 9.5 9.49994 7.48528 9.49994 5C9.49994 4.02913 9.8074 3.13007 10.3303 2.39487C10.3102 2.3878 10.2901 2.38081 10.2699 2.37391V2.27019C10.2699 1.01653 9.25366 0.000244141 8 0.000244141C6.74634 0.000244141 5.73005 1.01653 5.73005 2.27019V2.37391C3.58766 3.10744 2.0016 4.85088 1.76046 6.97543L1.31328 10.9155C1.23274 11.6251 0.933441 12.3018 0.447786 12.8724C-0.649243 14.1611 0.394434 16.0002 2.22281 16.0002ZM17 5C17 6.65685 15.6569 8 14 8C12.3431 8 11 6.65685 11 5C11 3.34315 12.3431 2 14 2C15.6569 2 17 3.34315 17 5ZM8 20.0002C9.35652 20.0002 10.5147 19.1995 10.9721 18.0718C10.9912 18.0247 11 17.9742 11 17.9235C11 17.6896 10.8104 17.5 10.5765 17.5H5.42349C5.1896 17.5 5 17.6896 5 17.9235C5 17.9742 5.00883 18.0247 5.0279 18.0718C5.48528 19.1995 6.64348 20.0002 8 20.0002Z" fill="white"/>
</svg>
