<svg width="9" height="9" viewBox="0 0 9 9" fill="none" xmlns="http://www.w3.org/2000/svg">
<path d="M7.91936 2.28131L7.91936 2.28132C7.9237 2.42239 7.88061 2.53125 7.78028 2.63149L7.39899 3.01242L6.00972 1.64075L6.37607 1.27473C6.4768 1.17409 6.59353 1.12451 6.75036 1.12451C6.90675 1.12451 7.02338 1.174 7.1242 1.27473L7.75765 1.90761C7.86354 2.01339 7.91475 2.13179 7.91936 2.28131ZM0.421147 8.60449L0.420222 8.60357C0.407487 8.59089 0.40033 8.58078 0.40033 8.54746V7.2704C0.40033 7.25836 0.402341 7.24744 0.407272 7.23516L0.407527 7.23452C0.410358 7.22743 0.415111 7.21894 0.426114 7.20795L4.82149 2.81659L6.2139 4.20773L1.81901 8.59861C1.80769 8.60993 1.79904 8.61473 1.79209 8.61751L1.93157 8.9656L1.79274 8.61726C1.77966 8.62247 1.76822 8.62451 1.75602 8.62451H0.477797C0.444139 8.62451 0.433855 8.61724 0.421147 8.60449Z" stroke="#6A6A6A" stroke-width="0.75"/>
</svg>
