<svg width="7" height="10" viewBox="0 0 7 10" fill="none" xmlns="http://www.w3.org/2000/svg">
<path d="M3.40823 6.83044C3.28842 6.83044 3.18806 6.79039 3.10716 6.7103C3.02597 6.63049 2.98537 6.53148 2.98537 6.41329V2.1688L2.60479 2.54423C2.52727 2.62071 2.43043 2.65895 2.31429 2.65895C2.19786 2.65895 2.09736 2.61723 2.01279 2.5338C1.93526 2.45037 1.8965 2.35123 1.8965 2.23637C1.8965 2.1218 1.93526 2.02627 2.01279 1.94979L3.11223 0.865204C3.14747 0.830442 3.19159 0.802632 3.24459 0.781775C3.2973 0.760917 3.35185 0.750488 3.40823 0.750488C3.46462 0.750488 3.51931 0.760917 3.5723 0.781775C3.62502 0.802632 3.669 0.830442 3.70424 0.865204L4.80368 1.94979C4.88825 2.03322 4.93054 2.13403 4.93054 2.25223C4.93054 2.37042 4.88825 2.46775 4.80368 2.54423C4.71911 2.62071 4.61875 2.65895 4.5026 2.65895C4.38617 2.65895 4.2892 2.62071 4.21167 2.54423L3.8311 2.1688V6.41329C3.8311 6.53148 3.79064 6.63049 3.70973 6.7103C3.62855 6.79039 3.52804 6.83044 3.40823 6.83044ZM0.871056 9.75049C0.638481 9.75049 0.439453 9.66887 0.273973 9.50562C0.108211 9.3421 0.0253296 9.14562 0.0253296 8.91619V4.32754C0.0253296 4.09811 0.108211 3.90163 0.273973 3.73811C0.439453 3.57487 0.638481 3.49325 0.871056 3.49325H1.71678C1.83659 3.49325 1.93709 3.53315 2.01828 3.61297C2.09919 3.69306 2.13964 3.7922 2.13964 3.9104C2.13964 4.02859 2.09919 4.12759 2.01828 4.20741C1.93709 4.2875 1.83659 4.32754 1.71678 4.32754H0.871056V8.91619H5.94541V4.32754H5.09969C4.97987 4.32754 4.87951 4.2875 4.79861 4.20741C4.71742 4.12759 4.67682 4.02859 4.67682 3.9104C4.67682 3.7922 4.71742 3.69306 4.79861 3.61297C4.87951 3.53315 4.97987 3.49325 5.09969 3.49325H5.94541C6.17799 3.49325 6.37715 3.57487 6.54292 3.73811C6.7084 3.90163 6.79114 4.09811 6.79114 4.32754V8.91619C6.79114 9.14562 6.7084 9.3421 6.54292 9.50562C6.37715 9.66887 6.17799 9.75049 5.94541 9.75049H0.871056Z" fill="#6A6A6A"/>
</svg>
